<svg width="146" height="161" viewBox="0 0 146 161" fill="none" xmlns="http://www.w3.org/2000/svg">
<path id="Vector" d="M70.3483 0.592837C71.0437 0.204463 71.8327 0 72.6357 0C73.4388 0 74.2278 0.204463 74.9232 0.592837L142.984 38.6036C143.68 38.9922 144.258 39.5513 144.659 40.2245C145.061 40.8977 145.272 41.6614 145.271 42.4386V118.453C145.272 119.23 145.061 119.994 144.659 120.667C144.258 121.34 143.68 121.899 142.984 122.288L74.9232 160.284C74.2278 160.672 73.4388 160.877 72.6357 160.877C71.8327 160.877 71.0437 160.672 70.3483 160.284L2.2875 122.273C1.59158 121.884 1.01377 121.325 0.612202 120.652C0.210636 119.979 -0.000514269 119.215 9.40581e-07 118.438V42.4386C-0.000514269 41.6614 0.210636 40.8977 0.612202 40.2245C1.01377 39.5513 1.59158 38.9922 2.2875 38.6036L70.3483 0.600213V0.592837Z" fill="#787A91"/>
</svg>
